<mxfile host="app.diagrams.net" agent="Mozilla/5.0 (Macintosh; Intel Mac OS X 10_15_7) AppleWebKit/537.36 (KHTML, like Gecko) Chrome/130.0.0.0 Safari/537.36" version="24.7.17">
  <diagram name="Page-1" id="VxbZsfQ6vlXJQv2ikdC8">
    <mxGraphModel dx="819" dy="434" grid="1" gridSize="10" guides="1" tooltips="1" connect="1" arrows="1" fold="1" page="1" pageScale="1" pageWidth="827" pageHeight="1169" math="0" shadow="0">
      <root>
        <mxCell id="0" />
        <mxCell id="1" parent="0" />
        <mxCell id="Ht8cUeteIGSEXaey3JQ4-1" value="A&#xa;shift" style="whiteSpace=wrap;glass=0;rounded=1;shadow=0;textShadow=0;strokeWidth=2;perimeterSpacing=2;flipV=1;flipH=1;fillColor=#FFFFFF;fontFamily=Comic Sans MS;fontStyle=0;" parent="1" vertex="1">
          <mxGeometry x="23.5" y="174" width="30" height="30" as="geometry" />
        </mxCell>
        <mxCell id="Ht8cUeteIGSEXaey3JQ4-3" value="R&#xa;ctrl" style="whiteSpace=wrap;glass=0;rounded=1;shadow=0;textShadow=0;strokeWidth=2;perimeterSpacing=2;flipV=1;flipH=1;fillColor=#E6D0DE;fontFamily=Comic Sans MS;fontStyle=0;" parent="1" vertex="1">
          <mxGeometry x="53.5" y="161" width="30" height="30" as="geometry" />
        </mxCell>
        <mxCell id="Ht8cUeteIGSEXaey3JQ4-4" value="B" style="whiteSpace=wrap;glass=0;rounded=1;shadow=0;textShadow=0;strokeWidth=2;perimeterSpacing=2;flipV=1;flipH=1;fillColor=#D5E8D4;fontFamily=Comic Sans MS;fontStyle=0;" parent="1" vertex="1">
          <mxGeometry x="53.5" y="191" width="30" height="30" as="geometry" />
        </mxCell>
        <mxCell id="Ht8cUeteIGSEXaey3JQ4-5" value="S&#xa;alt" style="whiteSpace=wrap;glass=0;rounded=1;shadow=0;textShadow=0;strokeWidth=2;perimeterSpacing=2;flipV=1;flipH=1;fontFamily=Comic Sans MS;fontStyle=0;" parent="1" vertex="1">
          <mxGeometry x="83.5" y="151" width="30" height="30" as="geometry" />
        </mxCell>
        <mxCell id="Ht8cUeteIGSEXaey3JQ4-6" value="T&#xa;gui" style="whiteSpace=wrap;glass=0;rounded=1;shadow=0;textShadow=0;strokeWidth=2;perimeterSpacing=2;flipV=1;flipH=1;fillColor=#E6D0DE;fontFamily=Comic Sans MS;fontStyle=0;" parent="1" vertex="1">
          <mxGeometry x="113.5" y="161" width="30" height="30" as="geometry" />
        </mxCell>
        <mxCell id="Ht8cUeteIGSEXaey3JQ4-7" value="C" style="whiteSpace=wrap;glass=0;rounded=1;shadow=0;textShadow=0;strokeWidth=2;perimeterSpacing=2;flipV=1;flipH=1;fontFamily=Comic Sans MS;fontStyle=0;" parent="1" vertex="1">
          <mxGeometry x="83.5" y="181" width="30" height="30" as="geometry" />
        </mxCell>
        <mxCell id="Ht8cUeteIGSEXaey3JQ4-8" value="D" style="whiteSpace=wrap;glass=0;rounded=1;shadow=0;textShadow=0;strokeWidth=2;perimeterSpacing=2;flipV=1;flipH=1;fillColor=#D5E8D4;fontFamily=Comic Sans MS;fontStyle=0;" parent="1" vertex="1">
          <mxGeometry x="113.5" y="191" width="30" height="30" as="geometry" />
        </mxCell>
        <mxCell id="Ht8cUeteIGSEXaey3JQ4-9" value="W" style="whiteSpace=wrap;glass=0;rounded=1;shadow=0;textShadow=0;strokeWidth=2;perimeterSpacing=2;flipV=1;flipH=1;fillColor=#FFFFCC;fontFamily=Comic Sans MS;fontStyle=0;" parent="1" vertex="1">
          <mxGeometry x="53.5" y="131" width="30" height="30" as="geometry" />
        </mxCell>
        <mxCell id="Ht8cUeteIGSEXaey3JQ4-10" value="F" style="whiteSpace=wrap;glass=0;rounded=1;shadow=0;textShadow=0;strokeWidth=2;perimeterSpacing=2;fontFamily=Comic Sans MS;fontStyle=0;" parent="1" vertex="1">
          <mxGeometry x="83.5" y="121" width="30" height="30" as="geometry" />
        </mxCell>
        <mxCell id="Ht8cUeteIGSEXaey3JQ4-11" value="P" style="whiteSpace=wrap;glass=0;rounded=1;shadow=0;textShadow=0;strokeWidth=2;perimeterSpacing=2;flipV=1;flipH=1;fillColor=#FFFFCC;fontFamily=Comic Sans MS;fontStyle=0;" parent="1" vertex="1">
          <mxGeometry x="113.5" y="131" width="30" height="30" as="geometry" />
        </mxCell>
        <mxCell id="Ht8cUeteIGSEXaey3JQ4-13" value="G" style="whiteSpace=wrap;glass=0;rounded=1;shadow=0;textShadow=0;strokeWidth=2;perimeterSpacing=2;flipV=1;flipH=1;fillColor=#FFFFFF;fontFamily=Comic Sans MS;fontStyle=0;" parent="1" vertex="1">
          <mxGeometry x="143.5" y="161" width="30" height="30" as="geometry" />
        </mxCell>
        <mxCell id="Ht8cUeteIGSEXaey3JQ4-14" value="M" style="whiteSpace=wrap;glass=0;rounded=1;shadow=0;textShadow=0;strokeWidth=2;perimeterSpacing=2;flipV=1;flipH=1;fillColor=#FFFFFF;fontFamily=Comic Sans MS;fontStyle=0;" parent="1" vertex="1">
          <mxGeometry x="222.5" y="161" width="30" height="30" as="geometry" />
        </mxCell>
        <mxCell id="Ht8cUeteIGSEXaey3JQ4-16" value="N&#xa;gui" style="whiteSpace=wrap;glass=0;rounded=1;shadow=0;textShadow=0;strokeWidth=2;perimeterSpacing=2;flipV=1;flipH=1;fillColor=#E6D0DE;fontFamily=Comic Sans MS;fontStyle=0;" parent="1" vertex="1">
          <mxGeometry x="252.5" y="161" width="30" height="30" as="geometry" />
        </mxCell>
        <mxCell id="Ht8cUeteIGSEXaey3JQ4-17" value="H" style="whiteSpace=wrap;glass=0;rounded=1;shadow=0;textShadow=0;strokeWidth=2;perimeterSpacing=2;flipV=1;flipH=1;fillColor=#D5E8D4;fontFamily=Comic Sans MS;fontStyle=0;" parent="1" vertex="1">
          <mxGeometry x="252.5" y="191" width="30" height="30" as="geometry" />
        </mxCell>
        <mxCell id="Ht8cUeteIGSEXaey3JQ4-18" value="L" style="whiteSpace=wrap;glass=0;rounded=1;shadow=0;textShadow=0;strokeWidth=2;perimeterSpacing=2;flipV=1;flipH=1;fillColor=#FFFFCC;fontFamily=Comic Sans MS;fontStyle=0;" parent="1" vertex="1">
          <mxGeometry x="252.5" y="131" width="30" height="30" as="geometry" />
        </mxCell>
        <mxCell id="Ht8cUeteIGSEXaey3JQ4-19" value="E&#xa;alt" style="whiteSpace=wrap;glass=0;rounded=1;shadow=0;textShadow=0;strokeWidth=2;perimeterSpacing=2;flipV=1;flipH=1;fontFamily=Comic Sans MS;fontStyle=0;" parent="1" vertex="1">
          <mxGeometry x="282.5" y="151" width="30" height="30" as="geometry" />
        </mxCell>
        <mxCell id="Ht8cUeteIGSEXaey3JQ4-20" value="," style="whiteSpace=wrap;glass=0;rounded=1;shadow=0;textShadow=0;strokeWidth=2;perimeterSpacing=2;flipV=1;flipH=1;fontFamily=Comic Sans MS;fontStyle=0;" parent="1" vertex="1">
          <mxGeometry x="282.5" y="181" width="30" height="30" as="geometry" />
        </mxCell>
        <mxCell id="Ht8cUeteIGSEXaey3JQ4-21" value="U" style="whiteSpace=wrap;glass=0;rounded=1;shadow=0;textShadow=0;strokeWidth=2;perimeterSpacing=2;flipV=1;flipH=1;fontFamily=Comic Sans MS;fontStyle=0;" parent="1" vertex="1">
          <mxGeometry x="282.5" y="121" width="30" height="30" as="geometry" />
        </mxCell>
        <mxCell id="Ht8cUeteIGSEXaey3JQ4-22" value="I&#xa;ctrl" style="whiteSpace=wrap;glass=0;rounded=1;shadow=0;textShadow=0;strokeWidth=2;perimeterSpacing=2;flipV=1;flipH=1;fillColor=#E6D0DE;fontFamily=Comic Sans MS;fontStyle=0;" parent="1" vertex="1">
          <mxGeometry x="312.5" y="161" width="30" height="30" as="geometry" />
        </mxCell>
        <mxCell id="Ht8cUeteIGSEXaey3JQ4-23" value="." style="whiteSpace=wrap;glass=0;rounded=1;shadow=0;textShadow=0;strokeWidth=2;perimeterSpacing=2;flipV=1;flipH=1;fillColor=#D5E8D4;fontFamily=Comic Sans MS;fontStyle=0;" parent="1" vertex="1">
          <mxGeometry x="312.5" y="191" width="30" height="30" as="geometry" />
        </mxCell>
        <mxCell id="Ht8cUeteIGSEXaey3JQ4-24" value="Y" style="whiteSpace=wrap;glass=0;rounded=1;shadow=0;textShadow=0;strokeWidth=2;perimeterSpacing=2;flipV=1;flipH=1;fillColor=#FFFFCC;fontFamily=Comic Sans MS;fontStyle=0;" parent="1" vertex="1">
          <mxGeometry x="312.5" y="131" width="30" height="30" as="geometry" />
        </mxCell>
        <mxCell id="Ht8cUeteIGSEXaey3JQ4-25" value="O&#xa;shift" style="whiteSpace=wrap;glass=0;rounded=1;shadow=0;textShadow=0;strokeWidth=2;perimeterSpacing=2;flipV=1;flipH=1;fontFamily=Comic Sans MS;fontStyle=0;" parent="1" vertex="1">
          <mxGeometry x="342.5" y="174" width="30" height="30" as="geometry" />
        </mxCell>
        <mxCell id="Ht8cUeteIGSEXaey3JQ4-27" value="L1" style="whiteSpace=wrap;glass=0;rounded=1;shadow=0;textShadow=0;rotation=15;direction=west;strokeWidth=2;perimeterSpacing=2;flipV=1;flipH=1;fontFamily=Comic Sans MS;fontStyle=0;" parent="1" vertex="1">
          <mxGeometry x="126.5" y="229" width="30" height="30" as="geometry" />
        </mxCell>
        <mxCell id="Ht8cUeteIGSEXaey3JQ4-28" value="Spc&#xa;L4" style="whiteSpace=wrap;glass=0;rounded=1;shadow=0;textShadow=0;rotation=30;direction=north;strokeWidth=2;perimeterSpacing=2;flipV=1;flipH=1;fontFamily=Comic Sans MS;fontStyle=0;" parent="1" vertex="1">
          <mxGeometry x="157.5" y="241" width="30" height="30" as="geometry" />
        </mxCell>
        <mxCell id="Ht8cUeteIGSEXaey3JQ4-29" value="Bksp&#xa;L3" style="whiteSpace=wrap;glass=0;rounded=1;shadow=0;textShadow=0;rotation=-30;direction=north;strokeWidth=2;perimeterSpacing=2;flipV=1;flipH=1;fontFamily=Comic Sans MS;fontStyle=0;" parent="1" vertex="1">
          <mxGeometry x="205.5" y="241" width="30" height="30" as="geometry" />
        </mxCell>
        <mxCell id="Ht8cUeteIGSEXaey3JQ4-30" value="Enter&#xa;L2" style="whiteSpace=wrap;glass=0;rounded=1;shadow=0;textShadow=0;rotation=-15;direction=west;strokeWidth=2;perimeterSpacing=2;flipV=1;flipH=1;fontFamily=Comic Sans MS;fontStyle=0;" parent="1" vertex="1">
          <mxGeometry x="236.5" y="229" width="30" height="30" as="geometry" />
        </mxCell>
        <mxCell id="Ht8cUeteIGSEXaey3JQ4-31" value="select&#xa;all" style="whiteSpace=wrap;glass=0;rounded=1;shadow=0;textShadow=0;fontSize=10;strokeWidth=2;perimeterSpacing=2;flipV=1;flipH=1;fontFamily=Comic Sans MS;fontStyle=0;" parent="1" vertex="1">
          <mxGeometry x="23.5" y="334" width="30" height="30" as="geometry" />
        </mxCell>
        <mxCell id="Ht8cUeteIGSEXaey3JQ4-33" value="cut" style="whiteSpace=wrap;glass=0;rounded=1;shadow=0;textShadow=0;strokeWidth=2;perimeterSpacing=2;flipV=1;flipH=1;fontFamily=Comic Sans MS;fontStyle=0;" parent="1" vertex="1">
          <mxGeometry x="53.5" y="321" width="30" height="30" as="geometry" />
        </mxCell>
        <mxCell id="Ht8cUeteIGSEXaey3JQ4-34" value="" style="whiteSpace=wrap;glass=0;rounded=1;shadow=0;textShadow=0;strokeWidth=2;perimeterSpacing=2;flipV=1;flipH=1;fontFamily=Comic Sans MS;fontStyle=0;" parent="1" vertex="1">
          <mxGeometry x="53.5" y="351" width="30" height="30" as="geometry" />
        </mxCell>
        <mxCell id="Ht8cUeteIGSEXaey3JQ4-35" value="copy" style="whiteSpace=wrap;glass=0;rounded=1;shadow=0;textShadow=0;strokeWidth=2;perimeterSpacing=2;flipV=1;flipH=1;fontFamily=Comic Sans MS;fontStyle=0;" parent="1" vertex="1">
          <mxGeometry x="83.5" y="311" width="30" height="30" as="geometry" />
        </mxCell>
        <mxCell id="Ht8cUeteIGSEXaey3JQ4-36" value="paste" style="whiteSpace=wrap;glass=0;rounded=1;shadow=0;textShadow=0;fontSize=11;strokeWidth=2;perimeterSpacing=2;flipV=1;flipH=1;fontFamily=Comic Sans MS;fontStyle=0;" parent="1" vertex="1">
          <mxGeometry x="113.5" y="321" width="30" height="30" as="geometry" />
        </mxCell>
        <mxCell id="Ht8cUeteIGSEXaey3JQ4-37" value="undo" style="whiteSpace=wrap;glass=0;rounded=1;shadow=0;textShadow=0;strokeWidth=2;perimeterSpacing=2;flipV=1;flipH=1;fontFamily=Comic Sans MS;fontStyle=0;" parent="1" vertex="1">
          <mxGeometry x="83.5" y="341" width="30" height="30" as="geometry" />
        </mxCell>
        <mxCell id="Ht8cUeteIGSEXaey3JQ4-38" value="redo" style="whiteSpace=wrap;glass=0;rounded=1;shadow=0;textShadow=0;strokeWidth=2;perimeterSpacing=2;flipV=1;flipH=1;fontFamily=Comic Sans MS;fontStyle=0;" parent="1" vertex="1">
          <mxGeometry x="113.5" y="351" width="30" height="30" as="geometry" />
        </mxCell>
        <mxCell id="Ht8cUeteIGSEXaey3JQ4-39" value="" style="whiteSpace=wrap;glass=0;rounded=1;shadow=0;textShadow=0;strokeWidth=2;perimeterSpacing=2;flipV=1;flipH=1;fontFamily=Comic Sans MS;fontStyle=0;" parent="1" vertex="1">
          <mxGeometry x="53.5" y="291" width="30" height="30" as="geometry" />
        </mxCell>
        <mxCell id="Ht8cUeteIGSEXaey3JQ4-40" value="search" style="whiteSpace=wrap;glass=0;rounded=1;shadow=0;textShadow=0;fontSize=9;strokeWidth=2;perimeterSpacing=2;flipV=1;flipH=1;fontFamily=Comic Sans MS;fontStyle=0;" parent="1" vertex="1">
          <mxGeometry x="83.5" y="281" width="30" height="30" as="geometry" />
        </mxCell>
        <mxCell id="Ht8cUeteIGSEXaey3JQ4-41" value="" style="whiteSpace=wrap;glass=0;rounded=1;shadow=0;textShadow=0;strokeWidth=2;perimeterSpacing=2;flipV=1;flipH=1;fontFamily=Comic Sans MS;fontStyle=0;" parent="1" vertex="1">
          <mxGeometry x="113.5" y="291" width="30" height="30" as="geometry" />
        </mxCell>
        <mxCell id="Ht8cUeteIGSEXaey3JQ4-42" value="" style="whiteSpace=wrap;glass=0;rounded=1;shadow=0;textShadow=0;strokeWidth=2;perimeterSpacing=2;flipV=1;flipH=1;fontFamily=Comic Sans MS;fontStyle=0;" parent="1" vertex="1">
          <mxGeometry x="143.5" y="321" width="30" height="30" as="geometry" />
        </mxCell>
        <mxCell id="Ht8cUeteIGSEXaey3JQ4-44" value="←" style="whiteSpace=wrap;glass=0;rounded=1;shadow=0;textShadow=0;strokeWidth=2;perimeterSpacing=2;flipV=1;flipH=1;fontFamily=Comic Sans MS;fontStyle=0;" parent="1" vertex="1">
          <mxGeometry x="222.5" y="321" width="30" height="30" as="geometry" />
        </mxCell>
        <mxCell id="Ht8cUeteIGSEXaey3JQ4-46" value="↓" style="whiteSpace=wrap;glass=0;rounded=1;shadow=0;textShadow=0;strokeWidth=2;perimeterSpacing=2;flipV=1;flipH=1;fontFamily=Comic Sans MS;fontStyle=0;" parent="1" vertex="1">
          <mxGeometry x="252.5" y="321" width="30" height="30" as="geometry" />
        </mxCell>
        <mxCell id="Ht8cUeteIGSEXaey3JQ4-47" value="Ctrl C" style="whiteSpace=wrap;glass=0;rounded=1;shadow=0;textShadow=0;strokeWidth=2;perimeterSpacing=2;flipV=1;flipH=1;fontFamily=Comic Sans MS;fontStyle=0;" parent="1" vertex="1">
          <mxGeometry x="252.5" y="351" width="30" height="30" as="geometry" />
        </mxCell>
        <mxCell id="Ht8cUeteIGSEXaey3JQ4-48" value="" style="whiteSpace=wrap;glass=0;rounded=1;shadow=0;textShadow=0;fontSize=9;strokeWidth=2;perimeterSpacing=2;flipV=1;flipH=1;fontFamily=Comic Sans MS;fontStyle=0;" parent="1" vertex="1">
          <mxGeometry x="252.5" y="291" width="30" height="30" as="geometry" />
        </mxCell>
        <mxCell id="Ht8cUeteIGSEXaey3JQ4-49" value="↑" style="whiteSpace=wrap;glass=0;rounded=1;shadow=0;textShadow=0;strokeWidth=2;perimeterSpacing=2;flipV=1;flipH=1;fontFamily=Comic Sans MS;fontStyle=0;" parent="1" vertex="1">
          <mxGeometry x="282.5" y="311" width="30" height="30" as="geometry" />
        </mxCell>
        <mxCell id="Ht8cUeteIGSEXaey3JQ4-50" value="Ctrl V" style="whiteSpace=wrap;glass=0;rounded=1;shadow=0;textShadow=0;strokeWidth=2;perimeterSpacing=2;flipV=1;flipH=1;fontFamily=Comic Sans MS;fontStyle=0;" parent="1" vertex="1">
          <mxGeometry x="282.5" y="341" width="30" height="30" as="geometry" />
        </mxCell>
        <mxCell id="Ht8cUeteIGSEXaey3JQ4-51" value="" style="whiteSpace=wrap;glass=0;rounded=1;shadow=0;textShadow=0;strokeWidth=2;perimeterSpacing=2;flipV=1;flipH=1;fontFamily=Comic Sans MS;fontStyle=0;" parent="1" vertex="1">
          <mxGeometry x="282.5" y="281" width="30" height="30" as="geometry" />
        </mxCell>
        <mxCell id="Ht8cUeteIGSEXaey3JQ4-52" value="→" style="whiteSpace=wrap;glass=0;rounded=1;shadow=0;textShadow=0;strokeWidth=2;perimeterSpacing=2;flipV=1;flipH=1;fontFamily=Comic Sans MS;fontStyle=0;" parent="1" vertex="1">
          <mxGeometry x="312.5" y="321" width="30" height="30" as="geometry" />
        </mxCell>
        <mxCell id="Ht8cUeteIGSEXaey3JQ4-53" value="" style="whiteSpace=wrap;glass=0;rounded=1;shadow=0;textShadow=0;strokeWidth=2;perimeterSpacing=2;flipV=1;flipH=1;fontFamily=Comic Sans MS;fontStyle=0;fontSize=9;" parent="1" vertex="1">
          <mxGeometry x="312.5" y="351" width="30" height="30" as="geometry" />
        </mxCell>
        <mxCell id="Ht8cUeteIGSEXaey3JQ4-54" value="" style="whiteSpace=wrap;glass=0;rounded=1;shadow=0;textShadow=0;strokeWidth=2;perimeterSpacing=2;flipV=1;flipH=1;fontFamily=Comic Sans MS;fontStyle=0;" parent="1" vertex="1">
          <mxGeometry x="312.5" y="291" width="30" height="30" as="geometry" />
        </mxCell>
        <mxCell id="Ht8cUeteIGSEXaey3JQ4-55" value="" style="whiteSpace=wrap;glass=0;rounded=1;shadow=0;textShadow=0;strokeWidth=2;perimeterSpacing=2;flipV=1;flipH=1;fontFamily=Comic Sans MS;fontStyle=0;" parent="1" vertex="1">
          <mxGeometry x="342.5" y="334" width="30" height="30" as="geometry" />
        </mxCell>
        <mxCell id="Ht8cUeteIGSEXaey3JQ4-57" value="L1" style="whiteSpace=wrap;glass=0;rounded=1;shadow=0;textShadow=0;rotation=15;direction=west;labelBackgroundColor=none;fillColor=#FF0080;strokeWidth=2;perimeterSpacing=2;flipV=1;flipH=1;fontFamily=Comic Sans MS;fontStyle=0;" parent="1" vertex="1">
          <mxGeometry x="126.5" y="389" width="30" height="30" as="geometry" />
        </mxCell>
        <mxCell id="Ht8cUeteIGSEXaey3JQ4-58" value="" style="whiteSpace=wrap;glass=0;rounded=1;shadow=0;textShadow=0;rotation=30;direction=north;strokeWidth=2;perimeterSpacing=2;flipV=1;flipH=1;fontFamily=Comic Sans MS;fontStyle=0;" parent="1" vertex="1">
          <mxGeometry x="157.5" y="401" width="30" height="30" as="geometry" />
        </mxCell>
        <mxCell id="Ht8cUeteIGSEXaey3JQ4-59" value="Bksp" style="whiteSpace=wrap;glass=0;rounded=1;shadow=0;textShadow=0;rotation=-30;direction=north;strokeWidth=2;perimeterSpacing=2;fontFamily=Comic Sans MS;fontStyle=0;" parent="1" vertex="1">
          <mxGeometry x="205.5" y="401" width="30" height="30" as="geometry" />
        </mxCell>
        <mxCell id="Ht8cUeteIGSEXaey3JQ4-60" value="Del" style="whiteSpace=wrap;glass=0;rounded=1;shadow=0;textShadow=0;rotation=-15;direction=west;strokeWidth=2;perimeterSpacing=2;flipV=1;flipH=1;fontFamily=Comic Sans MS;fontStyle=0;" parent="1" vertex="1">
          <mxGeometry x="236.5" y="389" width="30" height="30" as="geometry" />
        </mxCell>
        <mxCell id="Ht8cUeteIGSEXaey3JQ4-61" value="{" style="whiteSpace=wrap;glass=0;rounded=1;shadow=0;textShadow=0;strokeWidth=2;perimeterSpacing=2;flipV=1;flipH=1;fillColor=#FFFFCC;strokeColor=#BDBDBD;fontFamily=Comic Sans MS;fontStyle=0;" parent="1" vertex="1">
          <mxGeometry x="53.5" y="80" width="30" height="30" as="geometry" />
        </mxCell>
        <mxCell id="Ht8cUeteIGSEXaey3JQ4-62" value="(" style="whiteSpace=wrap;glass=0;rounded=1;shadow=0;textShadow=0;strokeWidth=2;perimeterSpacing=2;flipV=1;flipH=1;fillColor=#E6D0DE;strokeColor=#BDBDBD;fontFamily=Comic Sans MS;fontStyle=0;" parent="1" vertex="1">
          <mxGeometry x="83.5" y="80" width="30" height="30" as="geometry" />
        </mxCell>
        <mxCell id="Ht8cUeteIGSEXaey3JQ4-63" value="[" style="whiteSpace=wrap;glass=0;rounded=1;shadow=0;textShadow=0;strokeWidth=2;perimeterSpacing=2;flipV=1;flipH=1;fillColor=#D5E8D4;strokeColor=#BDBDBD;fontFamily=Comic Sans MS;fontStyle=0;" parent="1" vertex="1">
          <mxGeometry x="113.5" y="80" width="30" height="30" as="geometry" />
        </mxCell>
        <mxCell id="Ht8cUeteIGSEXaey3JQ4-64" value="Q" style="glass=0;rounded=1;shadow=0;textShadow=0;strokeWidth=0;perimeterSpacing=0;flipV=1;flipH=1;fontSize=10;opacity=80;fillColor=#FFCE9F;verticalAlign=middle;fontFamily=Comic Sans MS;fontStyle=0;strokeColor=#FFB570;labelBackgroundColor=none;labelBorderColor=none;whiteSpace=wrap;dashed=1;dashPattern=8 8;" parent="1" vertex="1">
          <mxGeometry x="106.5" y="131" width="15" height="15" as="geometry" />
        </mxCell>
        <mxCell id="Ht8cUeteIGSEXaey3JQ4-65" value="X" style="glass=0;rounded=1;shadow=0;textShadow=0;strokeWidth=0;perimeterSpacing=0;flipV=1;flipH=1;fontSize=10;opacity=80;fillColor=#FFCE9F;verticalAlign=middle;fontFamily=Comic Sans MS;fontStyle=0;strokeColor=#FFB570;labelBackgroundColor=none;labelBorderColor=none;whiteSpace=wrap;dashed=1;dashPattern=8 8;" parent="1" vertex="1">
          <mxGeometry x="75.5" y="131" width="15" height="15" as="geometry" />
        </mxCell>
        <mxCell id="Ht8cUeteIGSEXaey3JQ4-66" value="&quot;" style="glass=0;rounded=1;shadow=0;textShadow=0;strokeWidth=0;perimeterSpacing=0;flipV=1;flipH=1;fontSize=10;opacity=80;fillColor=#FFCE9F;verticalAlign=middle;fontFamily=Comic Sans MS;fontStyle=0;strokeColor=#FFB570;labelBackgroundColor=none;labelBorderColor=none;whiteSpace=wrap;dashed=1;dashPattern=8 8;" parent="1" vertex="1">
          <mxGeometry x="75.5" y="163.5" width="15" height="15" as="geometry" />
        </mxCell>
        <mxCell id="Ht8cUeteIGSEXaey3JQ4-67" value="]" style="whiteSpace=wrap;glass=0;rounded=1;shadow=0;textShadow=0;strokeWidth=2;perimeterSpacing=2;flipV=1;flipH=1;fillColor=#D5E8D4;strokeColor=#BDBDBD;fontFamily=Comic Sans MS;fontStyle=0;" parent="1" vertex="1">
          <mxGeometry x="252.5" y="80" width="32" height="30" as="geometry" />
        </mxCell>
        <mxCell id="Ht8cUeteIGSEXaey3JQ4-68" value=")" style="whiteSpace=wrap;glass=0;rounded=1;shadow=0;textShadow=0;strokeWidth=2;perimeterSpacing=2;flipV=1;flipH=1;fillColor=#E6D0DE;strokeColor=#BDBDBD;fontFamily=Comic Sans MS;fontStyle=0;" parent="1" vertex="1">
          <mxGeometry x="284.5" y="80" width="30" height="30" as="geometry" />
        </mxCell>
        <mxCell id="Ht8cUeteIGSEXaey3JQ4-69" value="}" style="whiteSpace=wrap;glass=0;rounded=1;shadow=0;textShadow=0;strokeWidth=2;perimeterSpacing=2;flipV=1;flipH=1;fillColor=#FFFFCC;strokeColor=#BDBDBD;fontFamily=Comic Sans MS;fontStyle=0;" parent="1" vertex="1">
          <mxGeometry x="314.5" y="80" width="30" height="30" as="geometry" />
        </mxCell>
        <mxCell id="Ht8cUeteIGSEXaey3JQ4-70" value="J" style="glass=0;rounded=1;shadow=0;textShadow=0;strokeWidth=0;perimeterSpacing=0;flipV=1;flipH=1;fontSize=10;opacity=80;fillColor=#FFCE9F;verticalAlign=middle;fontFamily=Comic Sans MS;fontStyle=0;strokeColor=#FFB570;labelBackgroundColor=none;labelBorderColor=none;whiteSpace=wrap;dashed=1;dashPattern=8 8;" parent="1" vertex="1">
          <mxGeometry x="275.5" y="131" width="15" height="15" as="geometry" />
        </mxCell>
        <mxCell id="Ht8cUeteIGSEXaey3JQ4-71" value="-" style="glass=0;rounded=1;shadow=0;textShadow=0;strokeWidth=0;perimeterSpacing=0;flipV=1;flipH=1;fontSize=10;opacity=80;fillColor=#FFCE9F;verticalAlign=middle;fontFamily=Comic Sans MS;fontStyle=0;strokeColor=#FFB570;labelBackgroundColor=none;labelBorderColor=none;whiteSpace=wrap;dashed=1;dashPattern=8 8;" parent="1" vertex="1">
          <mxGeometry x="305.5" y="131" width="15" height="15" as="geometry" />
        </mxCell>
        <mxCell id="Ht8cUeteIGSEXaey3JQ4-72" value="esc" style="glass=0;rounded=1;shadow=0;textShadow=0;strokeWidth=0;perimeterSpacing=0;flipV=1;flipH=1;fontSize=9;opacity=80;fillColor=#FFCE9F;verticalAlign=bottom;fontFamily=Comic Sans MS;fontStyle=0;strokeColor=#FFB570;labelBackgroundColor=none;labelBorderColor=none;whiteSpace=wrap;dashed=1;dashPattern=8 8;" parent="1" vertex="1">
          <mxGeometry x="275.5" y="164" width="15" height="15" as="geometry" />
        </mxCell>
        <mxCell id="Ht8cUeteIGSEXaey3JQ4-73" value="_" style="glass=0;rounded=1;shadow=0;textShadow=0;strokeWidth=0;perimeterSpacing=0;flipV=1;flipH=1;fontSize=8;opacity=80;fillColor=#FFCE9F;verticalAlign=middle;fontStyle=0;fontFamily=Comic Sans MS;strokeColor=#FFB570;labelBackgroundColor=none;labelBorderColor=none;whiteSpace=wrap;dashed=1;dashPattern=8 8;" parent="1" vertex="1">
          <mxGeometry x="305.5" y="164" width="15" height="15" as="geometry" />
        </mxCell>
        <mxCell id="Ht8cUeteIGSEXaey3JQ4-74" value="K" style="glass=0;rounded=1;shadow=0;textShadow=0;strokeWidth=0;perimeterSpacing=0;flipV=1;flipH=1;fontSize=10;opacity=80;fillColor=#FFCE9F;verticalAlign=middle;fontFamily=Comic Sans MS;fontStyle=0;strokeColor=#FFB570;labelBackgroundColor=none;labelBorderColor=none;whiteSpace=wrap;dashed=1;dashPattern=8 8;" parent="1" vertex="1">
          <mxGeometry x="275.5" y="195" width="15" height="15" as="geometry" />
        </mxCell>
        <mxCell id="Ht8cUeteIGSEXaey3JQ4-75" value=";" style="glass=0;rounded=1;shadow=0;textShadow=0;strokeWidth=0;perimeterSpacing=0;flipV=1;flipH=1;fontSize=8;opacity=80;fillColor=#FFCE9F;verticalAlign=middle;fontFamily=Comic Sans MS;fontStyle=0;strokeColor=#FFB570;labelBackgroundColor=none;labelBorderColor=none;whiteSpace=wrap;dashed=1;dashPattern=8 8;" parent="1" vertex="1">
          <mxGeometry x="305.5" y="195" width="15" height="15" as="geometry" />
        </mxCell>
        <mxCell id="Ht8cUeteIGSEXaey3JQ4-76" value="*" style="whiteSpace=wrap;glass=0;rounded=1;shadow=0;textShadow=0;fontSize=12;strokeWidth=2;perimeterSpacing=2;flipV=1;flipH=1;fontFamily=Comic Sans MS;fontStyle=0;" parent="1" vertex="1">
          <mxGeometry x="23.5" y="504" width="30" height="30" as="geometry" />
        </mxCell>
        <mxCell id="Ht8cUeteIGSEXaey3JQ4-78" value="+" style="whiteSpace=wrap;glass=0;rounded=1;shadow=0;textShadow=0;strokeWidth=2;perimeterSpacing=2;flipV=1;flipH=1;fontFamily=Comic Sans MS;fontStyle=0;" parent="1" vertex="1">
          <mxGeometry x="53.5" y="491" width="30" height="30" as="geometry" />
        </mxCell>
        <mxCell id="Ht8cUeteIGSEXaey3JQ4-79" value="^" style="whiteSpace=wrap;glass=0;rounded=1;shadow=0;textShadow=0;strokeWidth=2;perimeterSpacing=2;flipV=1;flipH=1;fontFamily=Comic Sans MS;fontStyle=0;" parent="1" vertex="1">
          <mxGeometry x="53.5" y="521" width="30" height="30" as="geometry" />
        </mxCell>
        <mxCell id="Ht8cUeteIGSEXaey3JQ4-80" value="=" style="whiteSpace=wrap;glass=0;rounded=1;shadow=0;textShadow=0;strokeWidth=2;perimeterSpacing=2;flipV=1;flipH=1;fontFamily=Comic Sans MS;fontStyle=0;" parent="1" vertex="1">
          <mxGeometry x="83.5" y="481" width="30" height="30" as="geometry" />
        </mxCell>
        <mxCell id="Ht8cUeteIGSEXaey3JQ4-81" value="`" style="whiteSpace=wrap;glass=0;rounded=1;shadow=0;textShadow=0;fontSize=12;strokeWidth=2;perimeterSpacing=2;flipV=1;flipH=1;fontFamily=Comic Sans MS;fontStyle=0;" parent="1" vertex="1">
          <mxGeometry x="113.5" y="491" width="30" height="30" as="geometry" />
        </mxCell>
        <mxCell id="Ht8cUeteIGSEXaey3JQ4-82" value="&amp;" style="whiteSpace=wrap;glass=0;rounded=1;shadow=0;textShadow=0;strokeWidth=2;perimeterSpacing=2;flipV=1;flipH=1;fontFamily=Comic Sans MS;fontStyle=0;" parent="1" vertex="1">
          <mxGeometry x="83.5" y="511" width="30" height="30" as="geometry" />
        </mxCell>
        <mxCell id="Ht8cUeteIGSEXaey3JQ4-83" value="" style="whiteSpace=wrap;glass=0;rounded=1;shadow=0;textShadow=0;strokeWidth=2;perimeterSpacing=2;flipV=1;flipH=1;fontFamily=Comic Sans MS;fontStyle=0;" parent="1" vertex="1">
          <mxGeometry x="113.5" y="521" width="30" height="30" as="geometry" />
        </mxCell>
        <mxCell id="Ht8cUeteIGSEXaey3JQ4-84" value="@" style="whiteSpace=wrap;glass=0;rounded=1;shadow=0;textShadow=0;strokeWidth=2;perimeterSpacing=2;flipV=1;flipH=1;fontFamily=Comic Sans MS;fontStyle=0;" parent="1" vertex="1">
          <mxGeometry x="53.5" y="461" width="30" height="30" as="geometry" />
        </mxCell>
        <mxCell id="Ht8cUeteIGSEXaey3JQ4-85" value="#" style="whiteSpace=wrap;glass=0;rounded=1;shadow=0;textShadow=0;fontSize=12;strokeWidth=2;perimeterSpacing=2;flipV=1;flipH=1;fontFamily=Comic Sans MS;fontStyle=0;" parent="1" vertex="1">
          <mxGeometry x="83.5" y="451" width="30" height="30" as="geometry" />
        </mxCell>
        <mxCell id="Ht8cUeteIGSEXaey3JQ4-86" value="$" style="whiteSpace=wrap;glass=0;rounded=1;shadow=0;textShadow=0;strokeWidth=2;perimeterSpacing=2;flipV=1;flipH=1;fontFamily=Comic Sans MS;fontStyle=0;" parent="1" vertex="1">
          <mxGeometry x="113.5" y="461" width="30" height="30" as="geometry" />
        </mxCell>
        <mxCell id="Ht8cUeteIGSEXaey3JQ4-87" value="%" style="whiteSpace=wrap;glass=0;rounded=1;shadow=0;textShadow=0;strokeWidth=2;perimeterSpacing=2;flipV=1;flipH=1;fontFamily=Comic Sans MS;fontStyle=0;" parent="1" vertex="1">
          <mxGeometry x="143.5" y="491" width="30" height="30" as="geometry" />
        </mxCell>
        <mxCell id="Ht8cUeteIGSEXaey3JQ4-89" value="!" style="whiteSpace=wrap;glass=0;rounded=1;shadow=0;textShadow=0;strokeWidth=2;perimeterSpacing=2;flipV=1;flipH=1;fontFamily=Comic Sans MS;fontStyle=0;" parent="1" vertex="1">
          <mxGeometry x="222.5" y="491" width="30" height="30" as="geometry" />
        </mxCell>
        <mxCell id="Ht8cUeteIGSEXaey3JQ4-91" value=":" style="whiteSpace=wrap;glass=0;rounded=1;shadow=0;textShadow=0;strokeWidth=2;perimeterSpacing=2;flipV=1;flipH=1;fontFamily=Comic Sans MS;fontStyle=0;" parent="1" vertex="1">
          <mxGeometry x="252.5" y="491" width="30" height="30" as="geometry" />
        </mxCell>
        <mxCell id="Ht8cUeteIGSEXaey3JQ4-92" value="&lt;" style="whiteSpace=wrap;glass=0;rounded=1;shadow=0;textShadow=0;strokeWidth=2;perimeterSpacing=2;flipV=1;flipH=1;fontFamily=Comic Sans MS;fontStyle=0;" parent="1" vertex="1">
          <mxGeometry x="252.5" y="521" width="30" height="30" as="geometry" />
        </mxCell>
        <mxCell id="Ht8cUeteIGSEXaey3JQ4-93" value="\" style="whiteSpace=wrap;glass=0;rounded=1;shadow=0;textShadow=0;fontSize=12;strokeWidth=2;perimeterSpacing=2;flipV=1;flipH=1;fontFamily=Comic Sans MS;fontStyle=0;" parent="1" vertex="1">
          <mxGeometry x="252.5" y="461" width="30" height="30" as="geometry" />
        </mxCell>
        <mxCell id="Ht8cUeteIGSEXaey3JQ4-94" value="# (uk)" style="whiteSpace=wrap;glass=0;rounded=1;shadow=0;textShadow=0;strokeWidth=2;perimeterSpacing=2;flipV=1;flipH=1;fontFamily=Comic Sans MS;fontStyle=0;" parent="1" vertex="1">
          <mxGeometry x="282.5" y="481" width="30" height="30" as="geometry" />
        </mxCell>
        <mxCell id="Ht8cUeteIGSEXaey3JQ4-95" value="&gt;" style="whiteSpace=wrap;glass=0;rounded=1;shadow=0;textShadow=0;strokeWidth=2;perimeterSpacing=2;flipV=1;flipH=1;fontFamily=Comic Sans MS;fontStyle=0;" parent="1" vertex="1">
          <mxGeometry x="282.5" y="511" width="30" height="30" as="geometry" />
        </mxCell>
        <mxCell id="Ht8cUeteIGSEXaey3JQ4-96" value="/" style="whiteSpace=wrap;glass=0;rounded=1;shadow=0;textShadow=0;strokeWidth=2;perimeterSpacing=2;flipV=1;flipH=1;fontFamily=Comic Sans MS;fontStyle=0;" parent="1" vertex="1">
          <mxGeometry x="282.5" y="451" width="30" height="30" as="geometry" />
        </mxCell>
        <mxCell id="Ht8cUeteIGSEXaey3JQ4-97" value="~" style="whiteSpace=wrap;glass=0;rounded=1;shadow=0;textShadow=0;strokeWidth=2;perimeterSpacing=2;flipV=1;flipH=1;fontFamily=Comic Sans MS;fontStyle=0;" parent="1" vertex="1">
          <mxGeometry x="312.5" y="491" width="30" height="30" as="geometry" />
        </mxCell>
        <mxCell id="Ht8cUeteIGSEXaey3JQ4-98" value="" style="whiteSpace=wrap;glass=0;rounded=1;shadow=0;textShadow=0;strokeWidth=2;perimeterSpacing=2;flipV=1;flipH=1;fontFamily=Comic Sans MS;fontStyle=0;" parent="1" vertex="1">
          <mxGeometry x="312.5" y="521" width="30" height="30" as="geometry" />
        </mxCell>
        <mxCell id="Ht8cUeteIGSEXaey3JQ4-99" value="?" style="whiteSpace=wrap;glass=0;rounded=1;shadow=0;textShadow=0;strokeWidth=2;perimeterSpacing=2;flipV=1;flipH=1;fontFamily=Comic Sans MS;fontStyle=0;" parent="1" vertex="1">
          <mxGeometry x="312.5" y="461" width="30" height="30" as="geometry" />
        </mxCell>
        <mxCell id="Ht8cUeteIGSEXaey3JQ4-100" value="|" style="whiteSpace=wrap;glass=0;rounded=1;shadow=0;textShadow=0;strokeWidth=2;perimeterSpacing=2;flipV=1;flipH=1;fontFamily=Comic Sans MS;fontStyle=0;" parent="1" vertex="1">
          <mxGeometry x="342.5" y="504" width="30" height="30" as="geometry" />
        </mxCell>
        <mxCell id="Ht8cUeteIGSEXaey3JQ4-102" value="" style="whiteSpace=wrap;glass=0;rounded=1;shadow=0;textShadow=0;rotation=15;direction=west;labelBackgroundColor=none;fillColor=#FFFFFF;strokeWidth=2;perimeterSpacing=2;flipV=1;flipH=1;fontFamily=Comic Sans MS;fontStyle=0;" parent="1" vertex="1">
          <mxGeometry x="126.5" y="559" width="30" height="30" as="geometry" />
        </mxCell>
        <mxCell id="Ht8cUeteIGSEXaey3JQ4-103" value="Spc" style="whiteSpace=wrap;glass=0;rounded=1;shadow=0;textShadow=0;rotation=30;direction=north;strokeWidth=2;perimeterSpacing=2;flipV=1;flipH=1;fontFamily=Comic Sans MS;fontStyle=0;" parent="1" vertex="1">
          <mxGeometry x="157.5" y="571" width="30" height="30" as="geometry" />
        </mxCell>
        <mxCell id="Ht8cUeteIGSEXaey3JQ4-104" value="" style="whiteSpace=wrap;glass=0;rounded=1;shadow=0;textShadow=0;rotation=-30;direction=north;strokeWidth=2;perimeterSpacing=2;fontFamily=Comic Sans MS;fontStyle=0;" parent="1" vertex="1">
          <mxGeometry x="205.5" y="571" width="30" height="30" as="geometry" />
        </mxCell>
        <mxCell id="Ht8cUeteIGSEXaey3JQ4-105" value="L2" style="whiteSpace=wrap;glass=0;rounded=1;shadow=0;textShadow=0;rotation=-15;direction=west;strokeWidth=2;perimeterSpacing=2;flipV=1;flipH=1;fontFamily=Comic Sans MS;fontStyle=0;fillColor=#FF0080;" parent="1" vertex="1">
          <mxGeometry x="236.5" y="559" width="30" height="30" as="geometry" />
        </mxCell>
        <mxCell id="Ht8cUeteIGSEXaey3JQ4-106" value="" style="whiteSpace=wrap;glass=0;rounded=1;shadow=0;textShadow=0;fontSize=12;strokeWidth=2;perimeterSpacing=2;flipV=1;flipH=1;fontFamily=Comic Sans MS;fontStyle=0;" parent="1" vertex="1">
          <mxGeometry x="23.5" y="684" width="30" height="30" as="geometry" />
        </mxCell>
        <mxCell id="Ht8cUeteIGSEXaey3JQ4-108" value="bright +" style="whiteSpace=wrap;glass=0;rounded=1;shadow=0;textShadow=0;strokeWidth=2;perimeterSpacing=2;flipV=1;flipH=1;fontFamily=Comic Sans MS;fontStyle=0;fontSize=9;" parent="1" vertex="1">
          <mxGeometry x="53.5" y="671" width="30" height="30" as="geometry" />
        </mxCell>
        <mxCell id="Ht8cUeteIGSEXaey3JQ4-109" value="bright -" style="whiteSpace=wrap;glass=0;rounded=1;shadow=0;textShadow=0;strokeWidth=2;perimeterSpacing=2;flipV=1;flipH=1;fontFamily=Comic Sans MS;fontStyle=0;fontSize=9;" parent="1" vertex="1">
          <mxGeometry x="53.5" y="701" width="30" height="30" as="geometry" />
        </mxCell>
        <mxCell id="Ht8cUeteIGSEXaey3JQ4-110" value="scroll down" style="whiteSpace=wrap;glass=0;rounded=1;shadow=0;textShadow=0;strokeWidth=2;perimeterSpacing=2;flipV=1;flipH=1;fontFamily=Comic Sans MS;fontStyle=0;fontSize=10;" parent="1" vertex="1">
          <mxGeometry x="83.5" y="661" width="30" height="30" as="geometry" />
        </mxCell>
        <mxCell id="Ht8cUeteIGSEXaey3JQ4-111" value="scroll up" style="whiteSpace=wrap;glass=0;rounded=1;shadow=0;textShadow=0;fontSize=10;strokeWidth=2;perimeterSpacing=2;flipV=1;flipH=1;fontFamily=Comic Sans MS;fontStyle=0;" parent="1" vertex="1">
          <mxGeometry x="113.5" y="671" width="30" height="30" as="geometry" />
        </mxCell>
        <mxCell id="Ht8cUeteIGSEXaey3JQ4-112" value="end" style="whiteSpace=wrap;glass=0;rounded=1;shadow=0;textShadow=0;strokeWidth=2;perimeterSpacing=2;flipV=1;flipH=1;fontFamily=Comic Sans MS;fontStyle=0;fontSize=12;" parent="1" vertex="1">
          <mxGeometry x="83.5" y="691" width="30" height="30" as="geometry" />
        </mxCell>
        <mxCell id="Ht8cUeteIGSEXaey3JQ4-113" value="home" style="whiteSpace=wrap;glass=0;rounded=1;shadow=0;textShadow=0;strokeWidth=2;perimeterSpacing=2;flipV=1;flipH=1;fontFamily=Comic Sans MS;fontStyle=0;" parent="1" vertex="1">
          <mxGeometry x="113.5" y="701" width="30" height="30" as="geometry" />
        </mxCell>
        <mxCell id="Ht8cUeteIGSEXaey3JQ4-114" value="mouse accel" style="whiteSpace=wrap;glass=0;rounded=1;shadow=0;textShadow=0;strokeWidth=2;perimeterSpacing=2;flipV=1;flipH=1;fontFamily=Comic Sans MS;fontStyle=0;fontSize=9;" parent="1" vertex="1">
          <mxGeometry x="53.5" y="641" width="30" height="30" as="geometry" />
        </mxCell>
        <mxCell id="Ht8cUeteIGSEXaey3JQ4-115" value="prev" style="whiteSpace=wrap;glass=0;rounded=1;shadow=0;textShadow=0;fontSize=12;strokeWidth=2;perimeterSpacing=2;flipV=1;flipH=1;fontFamily=Comic Sans MS;fontStyle=0;" parent="1" vertex="1">
          <mxGeometry x="83.5" y="631" width="30" height="30" as="geometry" />
        </mxCell>
        <mxCell id="Ht8cUeteIGSEXaey3JQ4-116" value="next" style="whiteSpace=wrap;glass=0;rounded=1;shadow=0;textShadow=0;strokeWidth=2;perimeterSpacing=2;flipV=1;flipH=1;fontFamily=Comic Sans MS;fontStyle=0;" parent="1" vertex="1">
          <mxGeometry x="113.5" y="641" width="30" height="30" as="geometry" />
        </mxCell>
        <mxCell id="Ht8cUeteIGSEXaey3JQ4-117" value="" style="whiteSpace=wrap;glass=0;rounded=1;shadow=0;textShadow=0;strokeWidth=2;perimeterSpacing=2;flipV=1;flipH=1;fontFamily=Comic Sans MS;fontStyle=0;" parent="1" vertex="1">
          <mxGeometry x="143.5" y="671" width="30" height="30" as="geometry" />
        </mxCell>
        <mxCell id="Ht8cUeteIGSEXaey3JQ4-119" value="mouse left" style="whiteSpace=wrap;glass=0;rounded=1;shadow=0;textShadow=0;strokeWidth=2;perimeterSpacing=2;flipV=1;flipH=1;fontFamily=Comic Sans MS;fontStyle=0;fontSize=9;" parent="1" vertex="1">
          <mxGeometry x="222.5" y="671" width="30" height="30" as="geometry" />
        </mxCell>
        <mxCell id="Ht8cUeteIGSEXaey3JQ4-121" value="mouse down" style="whiteSpace=wrap;glass=0;rounded=1;shadow=0;textShadow=0;strokeWidth=2;perimeterSpacing=2;flipV=1;flipH=1;fontFamily=Comic Sans MS;fontStyle=0;fontSize=9;" parent="1" vertex="1">
          <mxGeometry x="252.5" y="671" width="30" height="30" as="geometry" />
        </mxCell>
        <mxCell id="Ht8cUeteIGSEXaey3JQ4-122" value="zoom -" style="whiteSpace=wrap;glass=0;rounded=1;shadow=0;textShadow=0;strokeWidth=2;perimeterSpacing=2;flipV=1;flipH=1;fontFamily=Comic Sans MS;fontStyle=0;fontSize=10;" parent="1" vertex="1">
          <mxGeometry x="252.5" y="701" width="30" height="30" as="geometry" />
        </mxCell>
        <mxCell id="Ht8cUeteIGSEXaey3JQ4-123" value="mute" style="whiteSpace=wrap;glass=0;rounded=1;shadow=0;textShadow=0;fontSize=12;strokeWidth=2;perimeterSpacing=2;flipV=1;flipH=1;fontFamily=Comic Sans MS;fontStyle=0;" parent="1" vertex="1">
          <mxGeometry x="252.5" y="641" width="30" height="30" as="geometry" />
        </mxCell>
        <mxCell id="Ht8cUeteIGSEXaey3JQ4-124" value="move up" style="whiteSpace=wrap;glass=0;rounded=1;shadow=0;textShadow=0;strokeWidth=2;perimeterSpacing=2;flipV=1;flipH=1;fontFamily=Comic Sans MS;fontStyle=0;fontSize=9;" parent="1" vertex="1">
          <mxGeometry x="282.5" y="661" width="30" height="30" as="geometry" />
        </mxCell>
        <mxCell id="Ht8cUeteIGSEXaey3JQ4-125" value="zoom +" style="whiteSpace=wrap;glass=0;rounded=1;shadow=0;textShadow=0;strokeWidth=2;perimeterSpacing=2;flipV=1;flipH=1;fontFamily=Comic Sans MS;fontStyle=0;fontSize=10;" parent="1" vertex="1">
          <mxGeometry x="282.5" y="691" width="30" height="30" as="geometry" />
        </mxCell>
        <mxCell id="Ht8cUeteIGSEXaey3JQ4-126" value="vol -" style="whiteSpace=wrap;glass=0;rounded=1;shadow=0;textShadow=0;strokeWidth=2;perimeterSpacing=2;flipV=1;flipH=1;fontFamily=Comic Sans MS;fontStyle=0;" parent="1" vertex="1">
          <mxGeometry x="282.5" y="631" width="30" height="30" as="geometry" />
        </mxCell>
        <mxCell id="Ht8cUeteIGSEXaey3JQ4-127" value="mouse right" style="whiteSpace=wrap;glass=0;rounded=1;shadow=0;textShadow=0;strokeWidth=2;perimeterSpacing=2;flipV=1;flipH=1;fontFamily=Comic Sans MS;fontStyle=0;fontSize=9;" parent="1" vertex="1">
          <mxGeometry x="312.5" y="671" width="30" height="30" as="geometry" />
        </mxCell>
        <mxCell id="Ht8cUeteIGSEXaey3JQ4-128" value="" style="whiteSpace=wrap;glass=0;rounded=1;shadow=0;textShadow=0;strokeWidth=2;perimeterSpacing=2;flipV=1;flipH=1;fontFamily=Comic Sans MS;fontStyle=0;" parent="1" vertex="1">
          <mxGeometry x="312.5" y="701" width="30" height="30" as="geometry" />
        </mxCell>
        <mxCell id="Ht8cUeteIGSEXaey3JQ4-129" value="vol +" style="whiteSpace=wrap;glass=0;rounded=1;shadow=0;textShadow=0;strokeWidth=2;perimeterSpacing=2;flipV=1;flipH=1;fontFamily=Comic Sans MS;fontStyle=0;" parent="1" vertex="1">
          <mxGeometry x="312.5" y="641" width="30" height="30" as="geometry" />
        </mxCell>
        <mxCell id="Ht8cUeteIGSEXaey3JQ4-130" value="" style="whiteSpace=wrap;glass=0;rounded=1;shadow=0;textShadow=0;strokeWidth=2;perimeterSpacing=2;flipV=1;flipH=1;fontFamily=Comic Sans MS;fontStyle=0;" parent="1" vertex="1">
          <mxGeometry x="342.5" y="684" width="30" height="30" as="geometry" />
        </mxCell>
        <mxCell id="Ht8cUeteIGSEXaey3JQ4-132" value="left click" style="whiteSpace=wrap;glass=0;rounded=1;shadow=0;textShadow=0;rotation=15;direction=west;labelBackgroundColor=none;fillColor=#FFFFFF;strokeWidth=2;perimeterSpacing=2;flipV=1;flipH=1;fontFamily=Comic Sans MS;fontStyle=0;" parent="1" vertex="1">
          <mxGeometry x="126.5" y="739" width="30" height="30" as="geometry" />
        </mxCell>
        <mxCell id="Ht8cUeteIGSEXaey3JQ4-133" value="right click" style="whiteSpace=wrap;glass=0;rounded=1;shadow=0;textShadow=0;rotation=30;direction=north;strokeWidth=2;perimeterSpacing=2;flipV=1;flipH=1;fontFamily=Comic Sans MS;fontStyle=0;" parent="1" vertex="1">
          <mxGeometry x="157.5" y="751" width="30" height="30" as="geometry" />
        </mxCell>
        <mxCell id="Ht8cUeteIGSEXaey3JQ4-134" value="L3" style="whiteSpace=wrap;glass=0;rounded=1;shadow=0;textShadow=0;rotation=-30;direction=north;strokeWidth=2;perimeterSpacing=2;fontFamily=Comic Sans MS;fontStyle=0;fillColor=#FF0080;" parent="1" vertex="1">
          <mxGeometry x="205.5" y="751" width="30" height="30" as="geometry" />
        </mxCell>
        <mxCell id="Ht8cUeteIGSEXaey3JQ4-135" value="" style="whiteSpace=wrap;glass=0;rounded=1;shadow=0;textShadow=0;rotation=-15;direction=west;strokeWidth=2;perimeterSpacing=2;flipV=1;flipH=1;fontFamily=Comic Sans MS;fontStyle=0;fillColor=#FFFFFF;" parent="1" vertex="1">
          <mxGeometry x="236.5" y="739" width="30" height="30" as="geometry" />
        </mxCell>
        <mxCell id="Ht8cUeteIGSEXaey3JQ4-136" value="F4" style="whiteSpace=wrap;glass=0;rounded=1;shadow=0;textShadow=0;fontSize=12;strokeWidth=2;perimeterSpacing=2;flipV=1;flipH=1;fontFamily=Comic Sans MS;fontStyle=0;" parent="1" vertex="1">
          <mxGeometry x="23.5" y="854" width="30" height="30" as="geometry" />
        </mxCell>
        <mxCell id="Ht8cUeteIGSEXaey3JQ4-138" value="F5" style="whiteSpace=wrap;glass=0;rounded=1;shadow=0;textShadow=0;strokeWidth=2;perimeterSpacing=2;flipV=1;flipH=1;fontFamily=Comic Sans MS;fontStyle=0;fontSize=12;" parent="1" vertex="1">
          <mxGeometry x="53.5" y="841" width="30" height="30" as="geometry" />
        </mxCell>
        <mxCell id="Ht8cUeteIGSEXaey3JQ4-139" value="F1" style="whiteSpace=wrap;glass=0;rounded=1;shadow=0;textShadow=0;strokeWidth=2;perimeterSpacing=2;flipV=1;flipH=1;fontFamily=Comic Sans MS;fontStyle=0;fontSize=12;" parent="1" vertex="1">
          <mxGeometry x="53.5" y="871" width="30" height="30" as="geometry" />
        </mxCell>
        <mxCell id="Ht8cUeteIGSEXaey3JQ4-140" value="F6" style="whiteSpace=wrap;glass=0;rounded=1;shadow=0;textShadow=0;strokeWidth=2;perimeterSpacing=2;flipV=1;flipH=1;fontFamily=Comic Sans MS;fontStyle=0;fontSize=12;" parent="1" vertex="1">
          <mxGeometry x="83.5" y="831" width="30" height="30" as="geometry" />
        </mxCell>
        <mxCell id="Ht8cUeteIGSEXaey3JQ4-141" value="F7" style="whiteSpace=wrap;glass=0;rounded=1;shadow=0;textShadow=0;fontSize=12;strokeWidth=2;perimeterSpacing=2;flipV=1;flipH=1;fontFamily=Comic Sans MS;fontStyle=0;" parent="1" vertex="1">
          <mxGeometry x="113.5" y="841" width="30" height="30" as="geometry" />
        </mxCell>
        <mxCell id="Ht8cUeteIGSEXaey3JQ4-142" value="F2" style="whiteSpace=wrap;glass=0;rounded=1;shadow=0;textShadow=0;strokeWidth=2;perimeterSpacing=2;flipV=1;flipH=1;fontFamily=Comic Sans MS;fontStyle=0;fontSize=12;" parent="1" vertex="1">
          <mxGeometry x="83.5" y="861" width="30" height="30" as="geometry" />
        </mxCell>
        <mxCell id="Ht8cUeteIGSEXaey3JQ4-143" value="F3" style="whiteSpace=wrap;glass=0;rounded=1;shadow=0;textShadow=0;strokeWidth=2;perimeterSpacing=2;flipV=1;flipH=1;fontFamily=Comic Sans MS;fontStyle=0;fontSize=12;" parent="1" vertex="1">
          <mxGeometry x="113.5" y="871" width="30" height="30" as="geometry" />
        </mxCell>
        <mxCell id="Ht8cUeteIGSEXaey3JQ4-144" value="F9" style="whiteSpace=wrap;glass=0;rounded=1;shadow=0;textShadow=0;strokeWidth=2;perimeterSpacing=2;flipV=1;flipH=1;fontFamily=Comic Sans MS;fontStyle=0;fontSize=12;" parent="1" vertex="1">
          <mxGeometry x="53.5" y="811" width="30" height="30" as="geometry" />
        </mxCell>
        <mxCell id="Ht8cUeteIGSEXaey3JQ4-145" value="F10" style="whiteSpace=wrap;glass=0;rounded=1;shadow=0;textShadow=0;fontSize=12;strokeWidth=2;perimeterSpacing=2;flipV=1;flipH=1;fontFamily=Comic Sans MS;fontStyle=0;" parent="1" vertex="1">
          <mxGeometry x="83.5" y="801" width="30" height="30" as="geometry" />
        </mxCell>
        <mxCell id="Ht8cUeteIGSEXaey3JQ4-146" value="F11" style="whiteSpace=wrap;glass=0;rounded=1;shadow=0;textShadow=0;strokeWidth=2;perimeterSpacing=2;flipV=1;flipH=1;fontFamily=Comic Sans MS;fontStyle=0;fontSize=12;" parent="1" vertex="1">
          <mxGeometry x="113.5" y="811" width="30" height="30" as="geometry" />
        </mxCell>
        <mxCell id="Ht8cUeteIGSEXaey3JQ4-147" value="F8" style="whiteSpace=wrap;glass=0;rounded=1;shadow=0;textShadow=0;strokeWidth=2;perimeterSpacing=2;flipV=1;flipH=1;fontFamily=Comic Sans MS;fontStyle=0;" parent="1" vertex="1">
          <mxGeometry x="143.5" y="841" width="30" height="30" as="geometry" />
        </mxCell>
        <mxCell id="Ht8cUeteIGSEXaey3JQ4-149" value="F12" style="whiteSpace=wrap;glass=0;rounded=1;shadow=0;textShadow=0;strokeWidth=2;perimeterSpacing=2;flipV=1;flipH=1;fontFamily=Comic Sans MS;fontStyle=0;fontSize=12;" parent="1" vertex="1">
          <mxGeometry x="222.5" y="841" width="30" height="30" as="geometry" />
        </mxCell>
        <mxCell id="Ht8cUeteIGSEXaey3JQ4-151" value="4" style="whiteSpace=wrap;glass=0;rounded=1;shadow=0;textShadow=0;strokeWidth=2;perimeterSpacing=2;flipV=1;flipH=1;fontFamily=Comic Sans MS;fontStyle=0;fontSize=12;" parent="1" vertex="1">
          <mxGeometry x="252.5" y="841" width="30" height="30" as="geometry" />
        </mxCell>
        <mxCell id="Ht8cUeteIGSEXaey3JQ4-152" value="1" style="whiteSpace=wrap;glass=0;rounded=1;shadow=0;textShadow=0;strokeWidth=2;perimeterSpacing=2;flipV=1;flipH=1;fontFamily=Comic Sans MS;fontStyle=0;fontSize=12;" parent="1" vertex="1">
          <mxGeometry x="252.5" y="871" width="30" height="30" as="geometry" />
        </mxCell>
        <mxCell id="Ht8cUeteIGSEXaey3JQ4-153" value="7" style="whiteSpace=wrap;glass=0;rounded=1;shadow=0;textShadow=0;fontSize=12;strokeWidth=2;perimeterSpacing=2;flipV=1;flipH=1;fontFamily=Comic Sans MS;fontStyle=0;" parent="1" vertex="1">
          <mxGeometry x="252.5" y="811" width="30" height="30" as="geometry" />
        </mxCell>
        <mxCell id="Ht8cUeteIGSEXaey3JQ4-154" value="5" style="whiteSpace=wrap;glass=0;rounded=1;shadow=0;textShadow=0;strokeWidth=2;perimeterSpacing=2;flipV=1;flipH=1;fontFamily=Comic Sans MS;fontStyle=0;fontSize=12;" parent="1" vertex="1">
          <mxGeometry x="282.5" y="831" width="30" height="30" as="geometry" />
        </mxCell>
        <mxCell id="Ht8cUeteIGSEXaey3JQ4-155" value="2" style="whiteSpace=wrap;glass=0;rounded=1;shadow=0;textShadow=0;strokeWidth=2;perimeterSpacing=2;flipV=1;flipH=1;fontFamily=Comic Sans MS;fontStyle=0;fontSize=12;" parent="1" vertex="1">
          <mxGeometry x="282.5" y="861" width="30" height="30" as="geometry" />
        </mxCell>
        <mxCell id="Ht8cUeteIGSEXaey3JQ4-156" value="8" style="whiteSpace=wrap;glass=0;rounded=1;shadow=0;textShadow=0;strokeWidth=2;perimeterSpacing=2;flipV=1;flipH=1;fontFamily=Comic Sans MS;fontStyle=0;fontSize=12;" parent="1" vertex="1">
          <mxGeometry x="282.5" y="801" width="30" height="30" as="geometry" />
        </mxCell>
        <mxCell id="Ht8cUeteIGSEXaey3JQ4-157" value="6" style="whiteSpace=wrap;glass=0;rounded=1;shadow=0;textShadow=0;strokeWidth=2;perimeterSpacing=2;flipV=1;flipH=1;fontFamily=Comic Sans MS;fontStyle=0;fontSize=12;" parent="1" vertex="1">
          <mxGeometry x="312.5" y="841" width="30" height="30" as="geometry" />
        </mxCell>
        <mxCell id="Ht8cUeteIGSEXaey3JQ4-158" value="3" style="whiteSpace=wrap;glass=0;rounded=1;shadow=0;textShadow=0;strokeWidth=2;perimeterSpacing=2;flipV=1;flipH=1;fontFamily=Comic Sans MS;fontStyle=0;fontSize=12;" parent="1" vertex="1">
          <mxGeometry x="312.5" y="871" width="30" height="30" as="geometry" />
        </mxCell>
        <mxCell id="Ht8cUeteIGSEXaey3JQ4-159" value="9" style="whiteSpace=wrap;glass=0;rounded=1;shadow=0;textShadow=0;strokeWidth=2;perimeterSpacing=2;flipV=1;flipH=1;fontFamily=Comic Sans MS;fontStyle=0;fontSize=12;" parent="1" vertex="1">
          <mxGeometry x="312.5" y="811" width="30" height="30" as="geometry" />
        </mxCell>
        <mxCell id="Ht8cUeteIGSEXaey3JQ4-160" value="0" style="whiteSpace=wrap;glass=0;rounded=1;shadow=0;textShadow=0;strokeWidth=2;perimeterSpacing=2;flipV=1;flipH=1;fontFamily=Comic Sans MS;fontStyle=0;fontSize=12;" parent="1" vertex="1">
          <mxGeometry x="342.5" y="854" width="30" height="30" as="geometry" />
        </mxCell>
        <mxCell id="Ht8cUeteIGSEXaey3JQ4-162" value="" style="whiteSpace=wrap;glass=0;rounded=1;shadow=0;textShadow=0;rotation=15;direction=west;labelBackgroundColor=none;fillColor=#FFFFFF;strokeWidth=2;perimeterSpacing=2;flipV=1;flipH=1;fontFamily=Comic Sans MS;fontStyle=0;" parent="1" vertex="1">
          <mxGeometry x="126.5" y="909" width="30" height="30" as="geometry" />
        </mxCell>
        <mxCell id="Ht8cUeteIGSEXaey3JQ4-163" value="L4" style="whiteSpace=wrap;glass=0;rounded=1;shadow=0;textShadow=0;rotation=30;direction=north;strokeWidth=2;perimeterSpacing=2;flipV=1;flipH=1;fontFamily=Comic Sans MS;fontStyle=0;fillColor=#FF0080;" parent="1" vertex="1">
          <mxGeometry x="157.5" y="921" width="30" height="30" as="geometry" />
        </mxCell>
        <mxCell id="Ht8cUeteIGSEXaey3JQ4-164" value="Bksp" style="whiteSpace=wrap;glass=0;rounded=1;shadow=0;textShadow=0;rotation=-30;direction=north;strokeWidth=2;perimeterSpacing=2;fontFamily=Comic Sans MS;fontStyle=0;fillColor=#FFFFFF;fontSize=12;" parent="1" vertex="1">
          <mxGeometry x="205.5" y="921" width="30" height="30" as="geometry" />
        </mxCell>
        <mxCell id="Ht8cUeteIGSEXaey3JQ4-165" value="Del" style="whiteSpace=wrap;glass=0;rounded=1;shadow=0;textShadow=0;rotation=-15;direction=west;strokeWidth=2;perimeterSpacing=2;flipV=1;flipH=1;fontFamily=Comic Sans MS;fontStyle=0;fillColor=#FFFFFF;fontSize=12;" parent="1" vertex="1">
          <mxGeometry x="236.5" y="909" width="30" height="30" as="geometry" />
        </mxCell>
        <mxCell id="Ht8cUeteIGSEXaey3JQ4-166" value="&#39;" style="glass=0;rounded=1;shadow=0;textShadow=0;strokeWidth=0;perimeterSpacing=0;flipV=1;flipH=1;fontSize=10;opacity=80;fillColor=#FFCE9F;verticalAlign=middle;fontFamily=Comic Sans MS;fontStyle=0;strokeColor=#FFB570;labelBackgroundColor=none;labelBorderColor=none;whiteSpace=wrap;dashed=1;dashPattern=8 8;" parent="1" vertex="1">
          <mxGeometry x="75.5" y="195.5" width="15" height="15" as="geometry" />
        </mxCell>
        <mxCell id="Ht8cUeteIGSEXaey3JQ4-167" value="V" style="glass=0;rounded=1;shadow=0;textShadow=0;strokeWidth=0;perimeterSpacing=0;flipV=1;flipH=1;fontSize=10;opacity=80;fillColor=#FFCE9F;verticalAlign=middle;fontFamily=Comic Sans MS;fontStyle=0;strokeColor=#FFB570;labelBackgroundColor=none;labelBorderColor=none;whiteSpace=wrap;dashed=1;dashPattern=8 8;" parent="1" vertex="1">
          <mxGeometry x="106.5" y="195.5" width="15" height="15" as="geometry" />
        </mxCell>
        <mxCell id="Ht8cUeteIGSEXaey3JQ4-169" value="26 keys layout" style="text;html=1;align=left;verticalAlign=middle;whiteSpace=wrap;rounded=0;fontSize=19;fontFamily=Comic Sans MS;" parent="1" vertex="1">
          <mxGeometry x="17.25" y="7.5" width="152.75" height="30" as="geometry" />
        </mxCell>
        <mxCell id="Ht8cUeteIGSEXaey3JQ4-173" value="Z" style="glass=0;rounded=1;shadow=0;textShadow=0;strokeWidth=0;perimeterSpacing=0;flipV=1;flipH=1;fontSize=10;opacity=80;fillColor=#FFCE9F;verticalAlign=middle;fontFamily=Comic Sans MS;fontStyle=0;strokeColor=#FFB570;labelBackgroundColor=none;labelBorderColor=none;whiteSpace=wrap;dashed=1;dashPattern=8 8;" parent="1" vertex="1">
          <mxGeometry x="45.5" y="168.5" width="15" height="15" as="geometry" />
        </mxCell>
        <mxCell id="kOdQHCtrNxEU5ukmJYPU-28" value="" style="group;fontSize=12;" vertex="1" connectable="0" parent="1">
          <mxGeometry x="230" y="50" width="149" height="30" as="geometry" />
        </mxCell>
        <mxCell id="msQOEZGUuSK1mYBKR_Wb-4" value="N" style="whiteSpace=wrap;glass=0;rounded=1;shadow=0;textShadow=0;strokeWidth=1;perimeterSpacing=2;flipV=1;flipH=1;fontFamily=Comic Sans MS;fontStyle=0;fontSize=7;" parent="kOdQHCtrNxEU5ukmJYPU-28" vertex="1">
          <mxGeometry y="9" width="13" height="12" as="geometry" />
        </mxCell>
        <mxCell id="msQOEZGUuSK1mYBKR_Wb-5" value="+" style="text;html=1;align=center;verticalAlign=middle;whiteSpace=wrap;rounded=0;fontFamily=Comic Sans MS;" parent="kOdQHCtrNxEU5ukmJYPU-28" vertex="1">
          <mxGeometry x="10" width="30" height="30" as="geometry" />
        </mxCell>
        <mxCell id="msQOEZGUuSK1mYBKR_Wb-6" value="E" style="whiteSpace=wrap;glass=0;rounded=1;shadow=0;textShadow=0;strokeWidth=1;perimeterSpacing=2;flipV=1;flipH=1;fontFamily=Comic Sans MS;fontStyle=0;fontSize=7;" parent="kOdQHCtrNxEU5ukmJYPU-28" vertex="1">
          <mxGeometry x="34" y="9" width="13" height="12" as="geometry" />
        </mxCell>
        <mxCell id="msQOEZGUuSK1mYBKR_Wb-7" value="+" style="text;html=1;align=center;verticalAlign=middle;whiteSpace=wrap;rounded=0;fontFamily=Comic Sans MS;" parent="kOdQHCtrNxEU5ukmJYPU-28" vertex="1">
          <mxGeometry x="43" width="30" height="30" as="geometry" />
        </mxCell>
        <mxCell id="msQOEZGUuSK1mYBKR_Wb-8" value="I" style="whiteSpace=wrap;glass=0;rounded=1;shadow=0;textShadow=0;strokeWidth=1;perimeterSpacing=2;flipV=1;flipH=1;fontFamily=Comic Sans MS;fontStyle=0;fontSize=7;" parent="kOdQHCtrNxEU5ukmJYPU-28" vertex="1">
          <mxGeometry x="67" y="9" width="13" height="12" as="geometry" />
        </mxCell>
        <mxCell id="msQOEZGUuSK1mYBKR_Wb-9" value="= &lt;font style=&quot;font-size: 8px;&quot;&gt;sticky caps&lt;/font&gt;" style="text;html=1;align=center;verticalAlign=middle;whiteSpace=wrap;rounded=0;fontFamily=Comic Sans MS;" parent="kOdQHCtrNxEU5ukmJYPU-28" vertex="1">
          <mxGeometry x="76" width="73" height="30" as="geometry" />
        </mxCell>
        <mxCell id="kOdQHCtrNxEU5ukmJYPU-29" value="" style="group;fontSize=12;" vertex="1" connectable="0" parent="1">
          <mxGeometry x="148" y="122" width="112" height="30" as="geometry" />
        </mxCell>
        <mxCell id="kOdQHCtrNxEU5ukmJYPU-9" value="G" style="whiteSpace=wrap;glass=0;rounded=1;shadow=0;textShadow=0;strokeWidth=1;perimeterSpacing=2;flipV=1;flipH=1;fontFamily=Comic Sans MS;fontStyle=0;fontSize=7;" vertex="1" parent="kOdQHCtrNxEU5ukmJYPU-29">
          <mxGeometry y="9" width="13" height="12" as="geometry" />
        </mxCell>
        <mxCell id="kOdQHCtrNxEU5ukmJYPU-10" value="+" style="text;html=1;align=center;verticalAlign=middle;whiteSpace=wrap;rounded=0;fontFamily=Comic Sans MS;" vertex="1" parent="kOdQHCtrNxEU5ukmJYPU-29">
          <mxGeometry x="10" width="30" height="30" as="geometry" />
        </mxCell>
        <mxCell id="kOdQHCtrNxEU5ukmJYPU-11" value="M" style="whiteSpace=wrap;glass=0;rounded=1;shadow=0;textShadow=0;strokeWidth=1;perimeterSpacing=2;flipV=1;flipH=1;fontFamily=Comic Sans MS;fontStyle=0;fontSize=7;" vertex="1" parent="kOdQHCtrNxEU5ukmJYPU-29">
          <mxGeometry x="34" y="9" width="13" height="12" as="geometry" />
        </mxCell>
        <mxCell id="kOdQHCtrNxEU5ukmJYPU-14" value="= &lt;span style=&quot;font-size: 8px;&quot;&gt;caps lock&lt;/span&gt;" style="text;html=1;align=center;verticalAlign=middle;whiteSpace=wrap;rounded=0;fontFamily=Comic Sans MS;" vertex="1" parent="kOdQHCtrNxEU5ukmJYPU-29">
          <mxGeometry x="39" width="73" height="30" as="geometry" />
        </mxCell>
        <mxCell id="kOdQHCtrNxEU5ukmJYPU-30" value="" style="group;fontSize=12;rounded=0;glass=0;shadow=0;" vertex="1" connectable="0" parent="1">
          <mxGeometry x="148" y="106" width="116" height="30" as="geometry" />
        </mxCell>
        <mxCell id="kOdQHCtrNxEU5ukmJYPU-15" value="W" style="whiteSpace=wrap;glass=0;rounded=1;shadow=0;textShadow=0;strokeWidth=1;perimeterSpacing=2;flipV=1;flipH=1;fontFamily=Comic Sans MS;fontStyle=0;fontSize=7;" vertex="1" parent="kOdQHCtrNxEU5ukmJYPU-30">
          <mxGeometry y="9" width="13" height="12" as="geometry" />
        </mxCell>
        <mxCell id="kOdQHCtrNxEU5ukmJYPU-16" value="+" style="text;html=1;align=center;verticalAlign=middle;whiteSpace=wrap;rounded=0;fontFamily=Comic Sans MS;" vertex="1" parent="kOdQHCtrNxEU5ukmJYPU-30">
          <mxGeometry x="10" width="30" height="30" as="geometry" />
        </mxCell>
        <mxCell id="kOdQHCtrNxEU5ukmJYPU-17" value="Y" style="whiteSpace=wrap;glass=0;rounded=1;shadow=0;textShadow=0;strokeWidth=1;perimeterSpacing=2;flipV=1;flipH=1;fontFamily=Comic Sans MS;fontStyle=0;fontSize=7;" vertex="1" parent="kOdQHCtrNxEU5ukmJYPU-30">
          <mxGeometry x="34" y="9" width="13" height="12" as="geometry" />
        </mxCell>
        <mxCell id="kOdQHCtrNxEU5ukmJYPU-18" value="= &lt;span style=&quot;font-size: 8px;&quot;&gt;screenshot&lt;/span&gt;" style="text;html=1;align=center;verticalAlign=middle;whiteSpace=wrap;rounded=0;fontFamily=Comic Sans MS;fontStyle=0" vertex="1" parent="kOdQHCtrNxEU5ukmJYPU-30">
          <mxGeometry x="43" width="73" height="30" as="geometry" />
        </mxCell>
        <mxCell id="kOdQHCtrNxEU5ukmJYPU-31" value="" style="group;fontSize=12;" vertex="1" connectable="0" parent="1">
          <mxGeometry x="40" y="50" width="134" height="30" as="geometry" />
        </mxCell>
        <mxCell id="kOdQHCtrNxEU5ukmJYPU-20" value="R" style="whiteSpace=wrap;glass=0;rounded=1;shadow=0;textShadow=0;strokeWidth=1;perimeterSpacing=2;flipV=1;flipH=1;fontFamily=Comic Sans MS;fontStyle=0;fontSize=7;" vertex="1" parent="kOdQHCtrNxEU5ukmJYPU-31">
          <mxGeometry y="9" width="13" height="12" as="geometry" />
        </mxCell>
        <mxCell id="kOdQHCtrNxEU5ukmJYPU-21" value="+" style="text;html=1;align=center;verticalAlign=middle;whiteSpace=wrap;rounded=0;fontFamily=Comic Sans MS;" vertex="1" parent="kOdQHCtrNxEU5ukmJYPU-31">
          <mxGeometry x="10" width="30" height="30" as="geometry" />
        </mxCell>
        <mxCell id="kOdQHCtrNxEU5ukmJYPU-22" value="S" style="whiteSpace=wrap;glass=0;rounded=1;shadow=0;textShadow=0;strokeWidth=1;perimeterSpacing=2;flipV=1;flipH=1;fontFamily=Comic Sans MS;fontStyle=0;fontSize=7;" vertex="1" parent="kOdQHCtrNxEU5ukmJYPU-31">
          <mxGeometry x="34" y="9" width="13" height="12" as="geometry" />
        </mxCell>
        <mxCell id="kOdQHCtrNxEU5ukmJYPU-23" value="+" style="text;html=1;align=center;verticalAlign=middle;whiteSpace=wrap;rounded=0;fontFamily=Comic Sans MS;" vertex="1" parent="kOdQHCtrNxEU5ukmJYPU-31">
          <mxGeometry x="43" width="30" height="30" as="geometry" />
        </mxCell>
        <mxCell id="kOdQHCtrNxEU5ukmJYPU-24" value="T" style="whiteSpace=wrap;glass=0;rounded=1;shadow=0;textShadow=0;strokeWidth=1;perimeterSpacing=2;flipV=1;flipH=1;fontFamily=Comic Sans MS;fontStyle=0;fontSize=7;" vertex="1" parent="kOdQHCtrNxEU5ukmJYPU-31">
          <mxGeometry x="67" y="9" width="13" height="12" as="geometry" />
        </mxCell>
        <mxCell id="kOdQHCtrNxEU5ukmJYPU-25" value="= &lt;span style=&quot;font-size: 8px;&quot;&gt;tab&lt;/span&gt;" style="text;html=1;align=center;verticalAlign=middle;whiteSpace=wrap;rounded=0;fontFamily=Comic Sans MS;" vertex="1" parent="kOdQHCtrNxEU5ukmJYPU-31">
          <mxGeometry x="61" width="73" height="30" as="geometry" />
        </mxCell>
      </root>
    </mxGraphModel>
  </diagram>
</mxfile>
